<?xml version="1.0" encoding="UTF-8"?>
<svg xmlns="http://www.w3.org/2000/svg" version="1.1" viewBox="0 0 473.2 473.2">
  <!-- Generator: Adobe Illustrator 28.6.0, SVG Export Plug-In . SVG Version: 1.2.0 Build 709)  -->
  <g>
    <g id="Capa_1">
      <g>
        <path d="M178.7,58.8c-.9-.6,6.8,27.4,5.6,27.1-16.9-2.1-26.4-3.8-38.5-4.1-25.1-.5-38.5,20.9-66.7-1.3,15,21.7,13.5,31.4,13.1,32.2-.9,1.9-4,8.1-6.6,14.1-2.8,38.9-2.9,76.9,33.7,93.8,15.9,7.3,31.4-20.5,47.3-23.4s31.2,19.8,51.4,3.8c3.6-5,10.2-19.7,11.2-21.4.4-.7.7-1.5,1-2.4,10.1-32.5-3.5-58.7-26-87.6M111.1,126.1c.3-.4.5-.9.7-1.3,1.1-2.3,5.6-7.8,11.1-12,12.3-9.3,18.4-14.3,34.4-13,7.5.6,18.6,4.9,24.7,9.5,15.7,12,37.5,22.7,30,47-.7,6.4-2.7,13.1-3.7,14.7-8.7,17.9-26.4,2.5-50.6,10.2-25,7.9-37.9,17.7-49.6.5-15-23.4-14.3-28.8,3-55.5Z"/>
        <path d="M294.8,120.9c10.6,7.5,23.2-11,35.4-11s31,15.8,43.5,3.7c3.4-3.2,6.8-6.9,7.7-8.1.4-.5.8-1.1,1.2-1.8,12-22.6,2.1-45.1-13.5-63.3-3.6-4.3-6.9-7.9-8.1-9-.7-.6-1.5-1.2-2.4-1.7-10.8-5.5-33.4-11.3-44.2-11.3s-6.9,11.7-20.3,22c-.7.5-1.2,1-1.7,1.6-1,1.2-4,5.4-6.7,9.4-17.8,26.1-15.7,52,9,69.4ZM303.5,51.5c.3-.3.6-.6.8-1-.9,12.1-9.3,37,10.4,23.8,9.9-5,19.9-36.6,30.9-33.7,5.1,1.4,12.3,5.7,15.9,9.8,9.5,10.6,12.4,22.3,8.5,35-1.4,4.8-3.8,8.9-4.4,9.6-8.7,11.6-20.7,1-34.1,1s-31.8,7.4-37.7-6.2c-3.1-7.2-6.1-21.9,9.6-38.4Z"/>
        <path d="M406.8,150.1c-.2-1.4-.6-2.7-1.4-4-8.1-13.7-11.9-18.2-28.7-16.2,0,0-.1,0-.2,0-.2,0-.5,0-.7,0-12.2,0,5.7,0-6.6,0-12.3-.1-24.6-.3-37-.3-22.7,0-31.9-3.2-62.1,0-1.2,0-2.5,0-3.8.4-11.7,3.6-21.2,11.6-25.9,22.1-.5,1-.8,2.1-1,3.2-.6,1.2-.9,2.6-.9,4-.1,6.2-4.3,21-4.4,27.2-.2,9-.4,18.2-.5,27.4h0c1.7,0,3.5,0,5.2,0,3.2,0,6.5,0,9.7.1.9,0,1.7,0,2.6,0,.9,0,1.7,0,2.6,0,.1-9.5.3-19,.5-28.3.1-5.6,4.3-19.8,4.4-25.4,2.8-5.4,7-9.2,12.5-11,29.8-3.1,38.7.1,61.3.1s24.6.1,36.9.3c12.1.1-6.1,0,5.6,0,.8,0,1.6.1,2.5,0,1.5-.2,3-.3,4.4-.3,7.6,0,13.2,9.9,16.8,16,.2.3.4.6.6.9,2.6,33.3,26.1,60.5,26.3,98.1-8.4,0-16.5-12-26-11.6-.6-21.5-21.7-34.4-22.6-52.1-.4-6.3-1.8-20.3-6.8-20.3s-.9.5-2.7,2.4c-1.7,1.8-2.5,4.2-2.4,7,1.2,21.1,23.6,45.3,26,85.3-23.6,16.2-37,5.9-53,5.8-11.1-.1-29.2-11.8-40.4-11.9,0,.9.2,1.7.3,2.6.1,1.2.2,2.3.3,3.5.2,2.2.4,4.4.4,6.5s.1,2.5.2,3.7c0,.9,0,1.7,0,2.6,10.7,0,31.5,7.3,42.3,7.4,19.9.2,34.8-3.2,54.7-3.2h0c3.5,0,6.4-1.6,8-4.5,1.3-2.2,0,0,0-2.3s.2-4.8.7-7.2l1.3-6c10.8-.5,13.9,11.2,23.9,11.2s3.6-.5,5-1.4c.2,0,.4,0,.5,0,2.8,0,5.5-1,7.3-2.9,1.8-1.8,2.7-4.1,2.7-6.9,0-40.9-34.2-80.6-37-117.1-.1-1.9-.8-3.7-1.9-5.2ZM375.9,132.6h0s0,0,0,0Z"/>
        <path d="M272.6,219c4,2,7.6,4.2,10.8,6.8,1,.8,2.1,1.6,3,2.4,1.1,1,2.1,2.1,3.1,3.1-1.9-12-3.6-23.4-4.9-31.9-1.5-9.9-8.1-9.4-12.4-3.6-1.5,2-2.1,4.5-1.7,7.2.6,4.1-4.5,8.2-3.7,13.4,1,.4,1.9.8,2.8,1.2,1,.4,1.9.9,2.8,1.3Z"/>
        <path d="M295.3,300.9c0-2.2-.1-4.4-.2-6.5,0-.9,0-1.7,0-2.6,0-.9,0-1.7-.1-2.6-.1-2.9-.2-5.7-.4-8.6,0-.9-.1-1.7-.2-2.6,0-.9-.1-1.7-.2-2.6-.2-2.2-.3-4.4-.5-6.6,0-.8-.2-1.7-.3-2.5-.4-4-1-8.2-1.9-12.2-.2-1-.5-2-.8-3-.7-2.6-1.6-5.1-2.7-7.5-1.4-3.1-3.2-6-5.4-8.6-1.2-1.5-2.8-2.8-4.4-4.2-.8-.7-1.7-1.4-2.6-2-.8-.6-1.7-1.1-2.6-1.7-1.9-1.1-3.8-2.2-5.9-3.1-3.2-1.5-6.6-2.6-9.9-3.4-2.4-.6-4.8-1-7-1.2-2.9-.2-5.8-.3-8.7-.3-.9,0-1.7,0-2.6,0-.9,0-1.8,0-2.7,0-3.2,0-6.5,0-9.7.1-.9,0-1.7,0-2.6,0-.9,0-1.7,0-2.6,0-4.3,0-8.6.2-12.9.1-7.5,0,17.4-.1,9.9-.2-7.4,0-14.9-.2-22.3-.2-29.9-.3-46.9,6.1-76.7,7.4-16.8.7-33.5,1.9-50.2,3.7-1.3-.1-2.7,0-4.2.4-14.5,4.4-26.8,14.3-33.1,28.2-.6,1.3-1,2.6-1.1,3.9-.7,1.3-1.1,2.8-1.1,4.5-1,48.2-3.9,55.9-.9,104.1.3,4.2,2.5,7,5.5,8.4,1.5,1.4,3.6,2.4,6.2,2.4,19.2,0,25.9-18.5,45.1-19.4,0,6.4,17.2,53.4,17.2,58.5,0,1.8.4,3.3,1.1,4.6,1.2,3.3,4,5.9,8.5,5.9,54.3,0,57.3.4,111.5.4,6.4,0,15,0,13-7.2-1.5-5.3-4.1-13.8-3-19.2,2.5-11.8,6.2-28.4,6.2-29.9,15.5-.8,22.6,5.4,38.2,5.4,2.5,0,4.4-.8,5.9-2,5.6.8,11.9-2.4,11.8-9.6,0-31.6.7-22.1-.3-53.6-.2-4.9-.3-9.8-.4-14.7ZM239.7,356.7c-.8-31.5,12.3-40.5,10.9-64.1-.7-12.9-21-13-20.3,0,1.6,29.4-15,91.4-8.7,126.6-45.4-5.9-56-4.9-101.9-5.1-1,0-1.5-.9-1.9-1.8-12.6-32.1-19.7-82.6-19.8-110.6,0-13-20.3-13-20.3,0,0,21.3,7.3,12.4,7.5,42-16.4.8-20.3,19.4-36.7,19.4-2.3-45.3.4-50.1,1.3-95.4,4.1-8.5,10.8-18.5,19.9-21.4,26.9-3.3,44.6-6.7,73.6-7.2,18.3-.3,36.5-.2,54.8,0,10.8.1,21.5.2,32.3.3,7.8,0-16.7,0-8.9,0,.9,0,1.7,0,2.6,0,.9,0,1.8,0,2.6,0,2.8,0,5.7,0,8.5,0s.8,0,1.2,0c.9,0,1.8,0,2.7,0,.9,0,1.7,0,2.6,0,3.8,0,7.7.3,11.4,1.1,4.3.9,8.3,2.6,11.7,5.9,1.8,1.7,3.1,3.6,4.2,5.5.6,1.1,1.2,2.2,1.6,3.4.3.8.6,1.7.8,2.5.2.9.4,1.7.6,2.6.4,2.2.7,4.5.8,6.9,0,.5,0,1.1,0,1.6,0,.9.1,1.7.2,2.6,0,.9.1,1.8.2,2.6,0,.5,0,.9,0,1.4.3,4.1.5,8.3.8,12.4.2,3.9.5,7.8.7,11.7,0,.1,0,.2,0,.3,1.1,22-.3,3,.3,25,.3,12.5.4,24.9.5,37.4-14.8,0-21.1-6.1-35.9-5.4Z"/>
      </g>
    </g>
  </g>
</svg>