<?xml version="1.0" encoding="UTF-8"?>
<svg xmlns="http://www.w3.org/2000/svg" version="1.1" viewBox="0 0 800 800">
  <defs>
    <style>
      .cls-1 {
   
        stroke-miterlimit: 10;
        stroke-width: 6px;
      }
    </style>
  </defs>
  <!-- Generator: Adobe Illustrator 28.6.0, SVG Export Plug-In . SVG Version: 1.2.0 Build 709)  -->
  <g>
    <g id="Layer_1">
      <g id="Layer_1-2" data-name="Layer_1">
        <path class="cls-1" d="M71.2,667.2c2,49.9,26.6,101,76,101.2l497.7-18.4c26.1,0,52.6-38.3,52.6-64.4l6.9-351.4c0-27.7-22.5-50.1-50.3-50.1l-62.7,5.3c0-83.1-38.6-128.6-40.9-129.6-5.5-2.4-12.1-1.1-16.2,3.3-4.2,4.5-5.2,11-2.3,16.5,5.9,11-.3,48.6-4,60.5-1.6,3.6-3.9,6.7-6.9,9.2-2-33.2-27-70.3-72.9-107.8-35-28.7,22.4-88.9,24.3-90.9,3.4-4.9,3.4-11.6,0-16.5-3.2-5.4-9.5-8.2-15.6-6.8-54.7,14.4-205.9,55.5-166.7,167.1,18.7,39.2,14.9,77.3,8,81.6-5.6,2.2-12.1,1.1-16.6-2.8-8.2-4.9-9.5-40.3-8.7-49.7,2.2-7.6-2.2-15.6-9.8-17.8s-15.6,2.2-17.8,9.8c-4.4,11.6-8.8,39-10.4,58.4-1.6,19.4-8.2,13.7-16,12.2l-74.7-14.1c-73-6.2-68.5,66.4-67.2,112.5l-5.7,282.8h-.1ZM146.6,318h91.7c2.8,11.1,6.7,21.9,11.7,32.1h-107.8c-4,0-7.9,2.1-10,5.5-7.1,11.4.9,23.2,11.7,23.2h519.5c6.3,0,11.5,5.2,11.5,11.5h0c0,11.5-9.2,20.9-20.7,21.2l-491.5,11.7c-25.7,0-62.6-33-62.6-58.7s20.8-46.5,46.5-46.5h-.1ZM382,350.2c2.6-6.9,5.4-13.7,8.4-20.4,3.9-9,4.6-38.6,7.5-46.3,14.8,13.3,30.4,49.8,41.1,66.7h-56.9ZM675.7,622.9h-154.3c-27.2,1.4-54.5-21.5-62.8-64.1-.8-4-1.5-8.2-2.2-12.2-6.3-32,32.3-27.6,59.6-28.9h159.8v105.2h-.1ZM644.9,724.1l-366.6,13.8c-18.9.7-37.5,4.6-56.4,7.2-74.4,10.4-122,2.5-122-78v-244h0c23.5,18.9,53,28.9,83.2,28.2l459.4-10.9c19.3-.5,35.1,15,35.1,34.2h0c0,10.3-14.4,18.6-31.7,15.7-17.3-2.9-11.3-1.5-16.9-1.5h-107.6c-44.3-1.8-106.8,20-83.6,66.5,23.2,46.5,1.1,2.4,1.7,3.7,21.6,49.9,30.7,90.7,75,92.5h104.6c9.8,0,19.6-.8,29.2-2.9,21.4-4.7,31.3,16.3,28.9,32.8-2.4,16.5-.7,8.3-.5,12.2s-.3,7.2-1.4,10.7l-1.6,5.3c-.5,1.4-.7,2.8-1,4.1-1.8,8.2-18.9,10.4-27.8,10.4v-.2ZM675.7,334.1v16.1h-92.2c2.4-6.7,4.1-13.4,5.2-20.4,0-4.1.9-7.9,1.3-11.7l64.3-5.3c11.8,0,21.4,9.6,21.4,21.4h.1ZM265.7,297.4c14.1,10.9,33.4,11.9,48.7,2.8,14.4-9.6,28.7-33.2,16.2-91.4-15.4-73.9,40.1-112.5,77.5-129.2-9.2,24-20.6,46.4-8.4,71.1,4.9,10.1,13.2,18,23.1,23.3,47.4,25.4,70.4,74.9,60,99.3-1.8,4.8-.9,10.3,2.4,14.4,3.6,4,9.1,5.7,14.4,4.5,20.7-3.9,45.2-22.4,54.5-41.2.8-1.8,1.6-3.7,2.2-5.6,5.6,18.6,7.6,38.1,5.9,57.4h0c0,6.9-1,14.4-2.2,21.8-1.1,8.5-3.8,16.9-7.6,24.6h-80.8c-16.9-32.7-42-78.5-72.2-99.5-4.2-2.9-9.8-3.2-14.4-.8-4.5,2.2-7.6,6.5-8,11.5-3.2,13.7-7.6,44.8-13.9,57.3-4.2,10.3-8.6,20.9-12.4,31.6h-67.9c-10.7-16.3-17.5-35-19.5-54.4l2.3,2.9h.1Z"/>
        <path d="M523.9,547.4c-12.5,0-43.6,13.4-29.2,26.2l29.6.7c9.3.2,18.6,1.6,27.7,4.1s21.2,5.3,24.1.5c6.3-10.9,12.9-35.6-3.3-31.9-16.2,3.7-3,1-6.3,2.2-13.8,4.9-29,4.4-42.5-1.7h-.1Z"/>
        <path d="M354.1,519c-28.4,0-51.3,23-51.3,51.4s23,51.3,51.4,51.3,51.3-23,51.3-51.4v-.2c-.1-28.2-23.1-51.1-51.3-51.1h-.1ZM354.1,592.8c-12.5,0-22.6-10.1-22.6-22.7s10.1-22.6,22.7-22.6,22.6,10.1,22.6,22.5c.1,12.4-9.8,22.6-22.3,22.8h-.5Z"/>
        <path d="M212.7,515.9c-7.5.7-14.8,2-22.3,1.3-63.5-5.7-37.7,27.8-36.6,55.2s22.7,48.3,49.4,49.4,53.4-22.3,53.4-51.3v-.2c-.1-25.1,32.1-60.7-43.7-54.2h-.1ZM205.2,592.8c-12.5,0-22.6-10.1-22.6-22.7s10.1-22.6,22.7-22.6,30.9-4.2,31,8.2-18.1,37-30.5,37.2h-.6Z"/>
      </g>
    </g>
  </g>
</svg>